<svg width="73" height="38" viewBox="0 0 73 38" fill="none" xmlns="http://www.w3.org/2000/svg">
<path d="M39.8493 9.20654C39.1296 10.0767 37.9265 10.7212 36.9704 10.7212C36.8523 10.7212 36.7449 10.6997 36.6804 10.689C36.6697 10.6353 36.6374 10.4741 36.6374 10.3022C36.6374 9.20654 37.196 8.11084 37.8083 7.42334C38.571 6.521 39.8601 5.85498 40.9343 5.81201C40.9558 5.93018 40.9665 6.08057 40.9665 6.23096C40.9665 7.32666 40.5046 8.41162 39.8493 9.20654ZM40.6013 10.9468C41.2029 10.9468 43.3835 11.0112 44.8122 13.063C44.6833 13.1597 42.5242 14.3843 42.5242 17.1128C42.5242 20.2603 45.2742 21.3882 45.3601 21.4097C45.3493 21.4849 44.9197 22.9351 43.9099 24.4282C42.9968 25.728 42.0408 27.0493 40.6013 27.0493C39.1511 27.0493 38.7751 26.2007 37.1208 26.2007C35.488 26.2007 34.9079 27.0708 33.5974 27.0708C32.2654 27.0708 31.3415 25.8569 30.2888 24.3745C29.0535 22.6235 28.0652 19.9058 28.0652 17.3276C28.0652 13.2026 30.7507 11.0112 33.404 11.0112C34.8005 11.0112 35.9607 11.9243 36.8523 11.9243C37.6902 11.9243 39.0007 10.9468 40.6013 10.9468Z" fill="#007AFF"/>
<path fill-rule="evenodd" clip-rule="evenodd" d="M12.1721 37.7826C11.4659 37.7823 10.7682 37.6115 10.1279 37.2822C9.48767 36.953 8.92021 36.4731 8.46524 35.8763C9.45215 35.035 10.6957 34.6491 11.9347 34.7997C13.1737 34.9502 14.3116 35.6254 15.1096 36.6835C14.2644 37.3988 13.2289 37.7852 12.1643 37.7826H12.1721ZM14.3014 31.5571C14.3001 30.3835 14.6498 29.2424 15.2961 28.3112C16.2498 29.1954 16.8586 30.4515 16.9961 31.8187C17.1336 33.1859 16.7891 34.5591 16.0343 35.653C15.4928 35.1511 15.0571 34.5244 14.7577 33.8169C14.4584 33.1094 14.3026 32.3381 14.3014 31.5571ZM7.08975 33.0512C6.40562 32.8492 5.76992 32.4838 5.22747 31.9809C4.68501 31.4779 4.24901 30.8496 3.95021 30.1402C5.10133 29.6162 6.39104 29.6032 7.55063 30.1039C8.71022 30.6046 9.65026 31.5804 10.1749 32.8279C9.22681 33.2573 8.1544 33.3603 7.08975 33.0512ZM10.6101 27.6414C10.8848 26.5114 11.4883 25.5127 12.3275 24.7991C13.0402 25.9261 13.3328 27.313 13.1447 28.672C12.9566 30.0311 12.3022 31.2579 11.3173 32.098C10.9119 31.4574 10.6385 30.7264 10.5163 29.9564C10.3941 29.1864 10.4261 28.3962 10.6101 27.6414ZM2.50477 26.6797C1.95952 26.1829 1.51913 25.5604 1.21441 24.8559C0.909695 24.1513 0.748027 23.3817 0.740723 22.6009C1.98677 22.6474 3.16816 23.225 4.03735 24.2127C4.90655 25.2004 5.39609 26.5214 5.40341 27.899C4.3421 27.8561 3.32324 27.4275 2.50477 26.6797ZM7.73475 23.3823C8.43416 22.4377 9.37446 21.8366 10.3769 21.579C10.6031 22.9331 10.3481 24.3314 9.6649 25.483C8.98169 26.6346 7.92294 27.4508 6.70896 27.7616C6.58007 26.9932 6.60511 26.2029 6.78233 25.4462C6.95956 24.6896 7.28465 23.9851 7.73475 23.3823ZM1.67326 19.1489C1.26289 18.5125 0.983474 17.7845 0.854601 17.0161C0.725728 16.2478 0.750517 15.4575 0.92723 14.7009C2.11965 15.102 3.12538 15.9973 3.73378 17.1994C4.34219 18.4015 4.50607 19.8171 4.19111 21.1497C3.17547 20.807 2.29047 20.1038 1.67326 19.1489ZM7.50162 17.4573C8.36593 16.7763 9.40931 16.4292 10.4702 16.4698C10.3691 17.84 9.7944 19.1146 8.86545 20.0292C7.93651 20.9437 6.72458 21.428 5.48112 21.3815C5.53809 20.6029 5.74846 19.8474 6.09748 19.168C6.44651 18.4887 6.92574 17.9018 7.50162 17.4487V17.4573ZM2.38821 11.5065C2.18054 10.759 2.12371 9.9702 2.22173 9.19577C2.31974 8.42133 2.57021 7.68005 2.9555 7.02413C3.97015 7.8225 4.66613 9.02345 4.89787 10.3758C5.1296 11.7281 4.87915 13.1271 4.19888 14.2801C3.33653 13.5998 2.70034 12.6253 2.38821 11.5065ZM8.40307 11.9359C9.41641 11.5948 10.5031 11.631 11.496 12.0389C11.0084 13.3042 10.0986 14.3134 8.95546 14.8571C7.81229 15.4007 6.52355 15.437 5.35678 14.9585C5.63527 14.2413 6.05218 13.5999 6.57836 13.0793C7.10455 12.5587 7.7273 12.1714 8.40307 11.9445V11.9359ZM5.34124 5.40119C5.1625 3.76967 5.66763 2.22402 6.60794 1.10772C7.47917 2.09064 7.97354 3.40714 7.98801 4.78287C8.00249 6.15861 7.53596 7.48746 6.68565 8.4925C5.94167 7.65377 5.46908 6.5671 5.34124 5.40119ZM11.1929 6.99837C12.2457 6.85943 13.3106 7.10684 14.2237 7.7025C13.5412 8.85316 12.4844 9.66971 11.2721 9.98302C10.0598 10.2963 8.78492 10.0824 7.71144 9.38554C8.0989 8.73098 8.61135 8.17809 9.2128 7.76569C9.81424 7.35329 10.4901 7.09139 11.1929 6.99837ZM11.9467 1.15065C12.7772 0.423449 13.8014 0.0190283 14.8609 0C14.8231 1.37562 14.3069 2.68222 13.4197 3.64816C12.5325 4.6141 11.3425 5.16506 10.0972 5.18652C10.1199 4.40536 10.2973 3.6392 10.6169 2.94193C10.9364 2.24467 11.3903 1.63324 11.9467 1.15065Z" fill="#007AFF"/>
<path fill-rule="evenodd" clip-rule="evenodd" d="M60.9095 37.7826C61.6157 37.7823 62.3133 37.6115 62.9536 37.2822C63.5939 36.953 64.1613 36.4731 64.6163 35.8763C63.6294 35.035 62.3858 34.6491 61.1469 34.7997C59.9079 34.9502 58.7699 35.6254 57.972 36.6835C58.8171 37.3988 59.8526 37.7852 60.9172 37.7826H60.9095ZM58.7802 31.5571C58.7814 30.3835 58.4317 29.2424 57.7855 28.3112C56.8317 29.1954 56.2229 30.4515 56.0854 31.8187C55.948 33.1859 56.2924 34.5591 57.0472 35.653C57.5888 35.1511 58.0245 34.5244 58.3238 33.8169C58.6232 33.1094 58.7789 32.3381 58.7802 31.5571ZM65.9918 33.0512C66.6759 32.8492 67.3116 32.4839 67.8541 31.9809C68.3965 31.4779 68.8325 30.8496 69.1313 30.1402C67.9802 29.6162 66.6905 29.6032 65.5309 30.1039C64.3713 30.6046 63.4313 31.5804 62.9066 32.8279C63.8547 33.2573 64.9271 33.3603 65.9918 33.0512ZM62.4715 27.6414C62.1967 26.5114 61.5932 25.5127 60.754 24.7991C60.0414 25.9261 59.7487 27.313 59.9369 28.672C60.125 30.0311 60.7794 31.2579 61.7643 32.098C62.1697 31.4574 62.4431 30.7264 62.5653 29.9564C62.6874 29.1864 62.6554 28.3962 62.4715 27.6414ZM70.5768 26.6797C71.122 26.1829 71.5624 25.5604 71.8671 24.8559C72.1718 24.1513 72.3335 23.3817 72.3408 22.6009C71.0948 22.6474 69.9134 23.225 69.0442 24.2127C68.175 25.2004 67.6855 26.5214 67.6781 27.899C68.7394 27.8561 69.7583 27.4275 70.5768 26.6797ZM65.3468 23.3823C64.6474 22.4377 63.7071 21.8366 62.7046 21.579C62.4784 22.9331 62.7334 24.3314 63.4166 25.483C64.0999 26.6346 65.1586 27.4508 66.3726 27.7616C66.5015 26.9932 66.4764 26.2029 66.2992 25.4462C66.122 24.6896 65.7969 23.9851 65.3468 23.3823ZM71.4083 19.1489C71.8187 18.5125 72.0981 17.7845 72.2269 17.0161C72.3558 16.2478 72.331 15.4575 72.1543 14.7009C70.9619 15.102 69.9562 15.9973 69.3478 17.1994C68.7394 18.4015 68.5755 19.8171 68.8904 21.1497C69.9061 20.807 70.7911 20.1038 71.4083 19.1489ZM65.5799 17.4573C64.7156 16.7763 63.6722 16.4292 62.6113 16.4698C62.7125 17.84 63.2871 19.1146 64.2161 20.0292C65.145 20.9437 66.357 21.428 67.6004 21.3815C67.5435 20.6029 67.3331 19.8474 66.9841 19.168C66.635 18.4887 66.1558 17.9018 65.5799 17.4487V17.4573ZM70.6933 11.5065C70.901 10.759 70.9578 9.9702 70.8598 9.19577C70.7618 8.42133 70.5113 7.68005 70.126 7.02413C69.1114 7.8225 68.4154 9.02345 68.1837 10.3758C67.9519 11.7281 68.2024 13.1271 68.8827 14.2801C69.745 13.5998 70.3812 12.6253 70.6933 11.5065ZM64.6785 11.9359C63.6651 11.5948 62.5785 11.631 61.5856 12.0389C62.0731 13.3042 62.9829 14.3134 64.1261 14.8571C65.2693 15.4007 66.558 15.437 67.7248 14.9585C67.4463 14.2413 67.0294 13.5999 66.5032 13.0793C65.977 12.5587 65.3542 12.1714 64.6785 11.9445V11.9359ZM67.7403 5.40119C67.919 3.76967 67.4139 2.22402 66.4736 1.10772C65.6024 2.09064 65.108 3.40714 65.0935 4.78287C65.0791 6.15861 65.5456 7.48746 66.3959 8.4925C67.1399 7.65377 67.6125 6.5671 67.7403 5.40119ZM61.8886 6.99837C60.8358 6.85943 59.7709 7.10684 58.8579 7.7025C59.5403 8.85316 60.5971 9.66971 61.8094 9.98302C63.0217 10.2963 64.2966 10.0824 65.3701 9.38554C64.9826 8.73098 64.4702 8.17809 63.8687 7.76569C63.2673 7.35329 62.5914 7.09139 61.8886 6.99837ZM61.1348 1.15065C60.3044 0.423449 59.2801 0.0190283 58.2206 0C58.2585 1.37562 58.7747 2.68222 59.6618 3.64816C60.549 4.6141 61.739 5.16506 62.9844 5.18652C62.9616 4.40536 62.7842 3.6392 62.4647 2.94193C62.1451 2.24467 61.6912 1.63324 61.1348 1.15065Z" fill="#007AFF"/>
</svg>
